<svg xmlns="http://www.w3.org/2000/svg" viewBox="0 0 384 696" width="384" height="696" shape-rendering="crispEdges" xmlns:c2pa="http://c2pa.org/manifest"><metadata><c2pa:manifest>AAAWgmp1bWIAAAAeanVtZGMycGEAEQAQgAAAqgA4m3EDYzJwYQAAABZcanVtYgAAAEdqdW1kYzJtYQARABCAAACqADibcQN1cm46YzJwYTplY2U4OTE0My00OTY2LTRmOGQtOTBjYy03ZGVmYzMxMGFhMDYAAAADl2p1bWIAAAApanVtZGMyYXMAEQAQgAAAqgA4m3EDYzJwYS5hc3NlcnRpb25zAAAAALxqdW1iAAAARGp1bWRjYm9yABEAEIAAAKoAOJtxE2MycGEuaW5ncmVkaWVudC52MwAAAAAYYzJzaJE15kozYnyPn+mP8nGtVQQAAABwY2JvcqNpZGM6Zm9ybWF0bWltYWdlL3N2Zyt4bWxqaW5zdGFuY2VJRHgseG1wOmlpZDo1NzY2MzVjOC01ZDQ1LTRiNGQtYTU3ZC0wYjlmZTVmYzIyNDZscmVsYXRpb25zaGlwaHBhcmVudE9mAAAB4mp1bWIAAABBanVtZGNib3IAEQAQgAAAqgA4m3ETYzJwYS5hY3Rpb25zLnYyAAAAABhjMnNoyljRNDw6PXs9HC6AxrEqmgAAAZljYm9yomdhY3Rpb25zgqJmYWN0aW9ua2MycGEub3BlbmVkanBhcmFtZXRlcnOha2luZ3JlZGllbnRzgaJjdXJseC1zZWxmI2p1bWJmPWMycGEuYXNzZXJ0aW9ucy9jMnBhLmluZ3JlZGllbnQudjNkaGFzaFgg+ixd1P3mHXl3W9FF2E0PA/1E3UgZDHWXmdE+ejL6DvCkZmFjdGlvbngdY29tLmFudGhyb3BpYy5jbGF1ZGUucHJvdmlkZWRqcGFyYW1ldGVyc6F4H2NvbS5hbnRocm9waWMub3JpZ2luLWNvbmZpZGVuY2VndW5rbm93bmtkZXNjcmlwdGlvbnhmQ2xhdWRlIHByb3ZpZGVkIHRoaXMgZmlsZSBhdCB0aGUgcmVxdWVzdCBvZiBhIHVzZXIgYW5kIG1heSBoYXZlIGNyZWF0ZWQgb3IgbW9kaWZpZWQgdGhlIGZpbGUgY29udGVudHMubXNvZnR3YXJlQWdlbnShZG5hbWVmQ2xhdWRlcmFsbEFjdGlvbnNJbmNsdWRlZPUAAADIanVtYgAAAEBqdW1kY2JvcgARABCAAACqADibcRNjMnBhLmhhc2guZGF0YQAAAAAYYzJzaC+/qV7tB2zZVc12teh0DlkAAACAY2JvcqVjYWxnZnNoYTI1NmNwYWRNAAAAAAAAAAAAAAAAAGRoYXNoWCAPLft9fcwgTSZh95sp1s/EzsnlSGh7dsmbKyufCrkLmmRuYW1lbmp1bWJmIG1hbmlmZXN0amV4Y2x1c2lvbnOBomVzdGFydBizZmxlbmd0aBkeBAAAAj5qdW1iAAAAJ2p1bWRjMmNsABEAEIAAAKoAOJtxA2MycGEuY2xhaW0udjIAAAACD2Nib3KlY2FsZ2ZzaGEyNTZpc2lnbmF0dXJleE1zZWxmI2p1bWJmPS9jMnBhL3VybjpjMnBhOmVjZTg5MTQzLTQ5NjYtNGY4ZC05MGNjLTdkZWZjMzEwYWEwNi9jMnBhLnNpZ25hdHVyZWppbnN0YW5jZUlEeCx4bXA6aWlkOmMzZDc0NjdkLWY3NjctNDMyNS1hNmE3LTdjNTVhMThmYWZiYXJjcmVhdGVkX2Fzc2VydGlvbnODomN1cmx4LXNlbGYjanVtYmY9YzJwYS5hc3NlcnRpb25zL2MycGEuaW5ncmVkaWVudC52M2RoYXNoWCD6LF3U/eYdeXdb0UXYTQ8D/UTdSBkMdZeZ0T56MvoO8KJjdXJseCpzZWxmI2p1bWJmPWMycGEuYXNzZXJ0aW9ucy9jMnBhLmFjdGlvbnMudjJkaGFzaFggx4/UkQvUY4tfFXbRNM9nBbH2LK2cJSMZ7pmDINem9iiiY3VybHgpc2VsZiNqdW1iZj1jMnBhLmFzc2VydGlvbnMvYzJwYS5oYXNoLmRhdGFkaGFzaFggYawEh1t6Qeg4vfsJZUnkj8CRN95QEx6KAP1Fsk5Yr7t0Y2xhaW1fZ2VuZXJhdG9yX2luZm+jZG5hbWVvQW50aHJvcGljIEZpbGVzZ3ZlcnNpb25lMS4wLjBrc3BlY1ZlcnNpb25lMi40LjAAABA4anVtYgAAAChqdW1kYzJjcwARABCAAACqADibcQNjMnBhLnNpZ25hdHVyZQAAABAIY2JvctKEWQISogEmGCFZAgowggIGMIIBjaADAgECAhRA5aAK7sI50L64g/oGQgU9Z1UTADAKBggqhkjOPQQDAzBJMRcwFQYDVQQKEw5BbnRocm9waWMsIFBCQzEuMCwGA1UEAxMlQW50aHJvcGljIENvbnRlbnQgQ3JlZGVudGlhbHMgUm9vdCBDQTAeFw0yNjA4MDcxODQzNTZaFw0yODA4MDYxOTQzNTZaMEQxFzAVBgNVBAoTDkFudGhyb3BpYywgUEJDMSkwJwYDVQQDEyBBbnRocm9waWMgQ2xhdWRlIENvbnRlbnQgU2lnbmluZzBZMBMGByqGSM49AgEGCCqGSM49AwEHA0IABJh6CmvLUBgFFNU0vUKlOVtE6djd17L5SuwX0LemFisBM3dkd/3cyjxFA3Qo5S46fX0/ihY0VZ7mfb9KF703t5OjWDBWMA4GA1UdDwEB/wQEAwIHgDAVBgNVHSUEDjAMBgorBgEEAYPoXgIBMAwGA1UdEwEB/wQCMAAwHwYDVR0jBBgwFoAUzlHiBIFOZFsj+OPEz5o+nMHXXMIwCgYIKoZIzj0EAwMDZwAwZAIwMXMdFJ4BetLLVY7ORuE9noqbbAZOZn/aArXyTwFAZfKrPzxF2vPoJNf1+UCdg1XGAjBwX1zd9WGqYkqmL5SFqw1QySjr1zJfpJM9+1rdDwSPLMOPOjKuiXjoU/pUUeG9RwmhY3BhZFkNngAAAAAAAAAAAAAAAAAAAAAAAAAAAAAAAAAAAAAAAAAAAAAAAAAAAAAAAAAAAAAAAAAAAAAAAAAAAAAAAAAAAAAAAAAAAAAAAAAAAAAAAAAAAAAAAAAAAAAAAAAAAAAAAAAAAAAAAAAAAAAAAAAAAAAAAAAAAAAAAAAAAAAAAAAAAAAAAAAAAAAAAAAAAAAAAAAAAAAAAAAAAAAAAAAAAAAAAAAAAAAAAAAAAAAAAAAAAAAAAAAAAAAAAAAAAAAAAAAAAAAAAAAAAAAAAAAAAAAAAAAAAAAAAAAAAAAAAAAAAAAAAAAAAAAAAAAAAAAAAAAAAAAAAAAAAAAAAAAAAAAAAAAAAAAAAAAAAAAAAAAAAAAAAAAAAAAAAAAAAAAAAAAAAAAAAAAAAAAAAAAAAAAAAAAAAAAAAAAAAAAAAAAAAAAAAAAAAAAAAAAAAAAAAAAAAAAAAAAAAAAAAAAAAAAAAAAAAAAAAAAAAAAAAAAAAAAAAAAAAAAAAAAAAAAAAAAAAAAAAAAAAAAAAAAAAAAAAAAAAAAAAAAAAAAAAAAAAAAAAAAAAAAAAAAAAAAAAAAAAAAAAAAAAAAAAAAAAAAAAAAAAAAAAAAAAAAAAAAAAAAAAAAAAAAAAAAAAAAAAAAAAAAAAAAAAAAAAAAAAAAAAAAAAAAAAAAAAAAAAAAAAAAAAAAAAAAAAAAAAAAAAAAAAAAAAAAAAAAAAAAAAAAAAAAAAAAAAAAAAAAAAAAAAAAAAAAAAAAAAAAAAAAAAAAAAAAAAAAAAAAAAAAAAAAAAAAAAAAAAAAAAAAAAAAAAAAAAAAAAAAAAAAAAAAAAAAAAAAAAAAAAAAAAAAAAAAAAAAAAAAAAAAAAAAAAAAAAAAAAAAAAAAAAAAAAAAAAAAAAAAAAAAAAAAAAAAAAAAAAAAAAAAAAAAAAAAAAAAAAAAAAAAAAAAAAAAAAAAAAAAAAAAAAAAAAAAAAAAAAAAAAAAAAAAAAAAAAAAAAAAAAAAAAAAAAAAAAAAAAAAAAAAAAAAAAAAAAAAAAAAAAAAAAAAAAAAAAAAAAAAAAAAAAAAAAAAAAAAAAAAAAAAAAAAAAAAAAAAAAAAAAAAAAAAAAAAAAAAAAAAAAAAAAAAAAAAAAAAAAAAAAAAAAAAAAAAAAAAAAAAAAAAAAAAAAAAAAAAAAAAAAAAAAAAAAAAAAAAAAAAAAAAAAAAAAAAAAAAAAAAAAAAAAAAAAAAAAAAAAAAAAAAAAAAAAAAAAAAAAAAAAAAAAAAAAAAAAAAAAAAAAAAAAAAAAAAAAAAAAAAAAAAAAAAAAAAAAAAAAAAAAAAAAAAAAAAAAAAAAAAAAAAAAAAAAAAAAAAAAAAAAAAAAAAAAAAAAAAAAAAAAAAAAAAAAAAAAAAAAAAAAAAAAAAAAAAAAAAAAAAAAAAAAAAAAAAAAAAAAAAAAAAAAAAAAAAAAAAAAAAAAAAAAAAAAAAAAAAAAAAAAAAAAAAAAAAAAAAAAAAAAAAAAAAAAAAAAAAAAAAAAAAAAAAAAAAAAAAAAAAAAAAAAAAAAAAAAAAAAAAAAAAAAAAAAAAAAAAAAAAAAAAAAAAAAAAAAAAAAAAAAAAAAAAAAAAAAAAAAAAAAAAAAAAAAAAAAAAAAAAAAAAAAAAAAAAAAAAAAAAAAAAAAAAAAAAAAAAAAAAAAAAAAAAAAAAAAAAAAAAAAAAAAAAAAAAAAAAAAAAAAAAAAAAAAAAAAAAAAAAAAAAAAAAAAAAAAAAAAAAAAAAAAAAAAAAAAAAAAAAAAAAAAAAAAAAAAAAAAAAAAAAAAAAAAAAAAAAAAAAAAAAAAAAAAAAAAAAAAAAAAAAAAAAAAAAAAAAAAAAAAAAAAAAAAAAAAAAAAAAAAAAAAAAAAAAAAAAAAAAAAAAAAAAAAAAAAAAAAAAAAAAAAAAAAAAAAAAAAAAAAAAAAAAAAAAAAAAAAAAAAAAAAAAAAAAAAAAAAAAAAAAAAAAAAAAAAAAAAAAAAAAAAAAAAAAAAAAAAAAAAAAAAAAAAAAAAAAAAAAAAAAAAAAAAAAAAAAAAAAAAAAAAAAAAAAAAAAAAAAAAAAAAAAAAAAAAAAAAAAAAAAAAAAAAAAAAAAAAAAAAAAAAAAAAAAAAAAAAAAAAAAAAAAAAAAAAAAAAAAAAAAAAAAAAAAAAAAAAAAAAAAAAAAAAAAAAAAAAAAAAAAAAAAAAAAAAAAAAAAAAAAAAAAAAAAAAAAAAAAAAAAAAAAAAAAAAAAAAAAAAAAAAAAAAAAAAAAAAAAAAAAAAAAAAAAAAAAAAAAAAAAAAAAAAAAAAAAAAAAAAAAAAAAAAAAAAAAAAAAAAAAAAAAAAAAAAAAAAAAAAAAAAAAAAAAAAAAAAAAAAAAAAAAAAAAAAAAAAAAAAAAAAAAAAAAAAAAAAAAAAAAAAAAAAAAAAAAAAAAAAAAAAAAAAAAAAAAAAAAAAAAAAAAAAAAAAAAAAAAAAAAAAAAAAAAAAAAAAAAAAAAAAAAAAAAAAAAAAAAAAAAAAAAAAAAAAAAAAAAAAAAAAAAAAAAAAAAAAAAAAAAAAAAAAAAAAAAAAAAAAAAAAAAAAAAAAAAAAAAAAAAAAAAAAAAAAAAAAAAAAAAAAAAAAAAAAAAAAAAAAAAAAAAAAAAAAAAAAAAAAAAAAAAAAAAAAAAAAAAAAAAAAAAAAAAAAAAAAAAAAAAAAAAAAAAAAAAAAAAAAAAAAAAAAAAAAAAAAAAAAAAAAAAAAAAAAAAAAAAAAAAAAAAAAAAAAAAAAAAAAAAAAAAAAAAAAAAAAAAAAAAAAAAAAAAAAAAAAAAAAAAAAAAAAAAAAAAAAAAAAAAAAAAAAAAAAAAAAAAAAAAAAAAAAAAAAAAAAAAAAAAAAAAAAAAAAAAAAAAAAAAAAAAAAAAAAAAAAAAAAAAAAAAAAAAAAAAAAAAAAAAAAAAAAAAAAAAAAAAAAAAAAAAAAAAAAAAAAAAAAAAAAAAAAAAAAAAAAAAAAAAAAAAAAAAAAAAAAAAAAAAAAAAAAAAAAAAAAAAAAAAAAAAAAAAAAAAAAAAAAAAAAAAAAAAAAAAAAAAAAAAAAAAAAAAAAAAAAAAAAAAAAAAAAAAAAAAAAAAAAAAAAAAAAAAAAAAAAAAAAAAAAAAAAAAAAAAAAAAAAAAAAAAAAAAAAAAAAAAAAAAAAAAAAAAAAAAAAAAAAAAAAAAAAAAAAAAAAAAAAAAAAAAAAAAAAAAAAAAAAAAAAAAAAAAAAAAAAAAAAAAAAAAAAAAAAAAAAAAAAAAAAAAAAAAAAAAAAAAAAAAAAAAAAAAAAAAAAAAAAAAAAAAAAAAAAAAAAAAAAAAAAAAAAAAAAAAAAAAAAAAAAAAAAAAAAAAAAAAAAAAAAAAAAAAAAAAAAAAAAAAAAAAAAAAAAAAAAAAAAAAAAAAAAAAAAAAAAAAAAAAAAAAAAAAAAAAAAAAAAAAAAAAAAAAAAAAAAAAAAAAAAAAAAAAAAAAAAAAAAAAAAAAAAAAAAAAAAAAAAAAAAAAAAAAAAAAAAAAAAAAAAAAAAAAAAAAAAAAAAAAAAAAAAAAAAAAAAAAAAAAAAAAAAAAAAAAAAAAAAAAAAAAAAAAAAAAAAAAAAAAAAAAAAAAAAAAAAAAAAAAAAAAAAAAAAAAAAAAAAAAAAAAAAAAAAAAAAAAAAAAAAAAAAAAAAAAAAAAAAAAAAAAAAAAAAAAAAAAAAAAAAAAAAAAAAAAAAAAAAAAAAAAAAAAAAAAAAAAAAAAAAAAAAAAAAAAAAAAAAAAAAAAAAAAAAAAAAAAAAAAAAAAAAAAAAAAAAAAAAAAAAAAAAAAAAAAAAAAAAAAAAAAAAAAAAAAAAAAAAAAAAAAAAAAAAAAAAAAAAAAAAAAAAAAAAAAAAAAAAAAAAAAAAAAAAAAAAAAAAAAAAAAAAAAAAAAAAAAAAAAAAAAAAAAAAAAAAAAAAAAAAAAAAAAAAAAAAAAAAAAAAAAAAAAAAAAAAAAAAAAAAAAAAAAAAAAAAAAAAAAAAAAAAAAAAAAAAAAAAAAAAAAAAAAAAAAAAAAAAAAAAAAAAAAAAAAAAAAAAAAAAAAAAAAAAAAAAAAAAAAAAAAAAAAAAAAAAAAAAAAAAAAAAAAAAAAAAAAAAAAAAAAAAAAAAAAAAAAAAAAAAAAAAAAAAAAAAAAAAAAAAAAAAAAAAAAAAAAAAAAAAAAAAAAAAAAAAAAAAAAAAAAAAAAAAAAAAAAAAAAAAAAAAAAAAAAAAAAAAAAAAAAAAAAAAAAAAAAAAAAAAAAAAAAAAAAAAAAAAAAAAAAAAAAAAAAAAAAAAAAAAAAAAAAAAAAAAAAAAAAAAAAAAAAAAAAAAAAAAAAAAAAAAAAAAAAAAAAAAAAAAAAAAAAAAAAAAAAAAAAAAAAAAAAAAAAAAAAAAAAAAAAAAAAAAAAAAAAAAAAAAAAAAAAAAAAAAAAAAAAAAAAAAAAAAAAAAAAAAAAAAAAAAAAAAAAAAAAAAAAAAAAAAAAAAAAAAAAAAAAAAAAAAAAAAAAAAAAAAAAAAAAAAAAAAAAAAAAAAAAAAAAAAAAAAAAAAAAAAAAAAAAAAAAAAAAAAAAAAAAAAAAAAAAAAAAAAAAAAAAAAAAAAAAAAAAAAAAAAAAAAPZYQHrKJs78eoGCdqSD31bQXARE5mnhl/rr/Ko6A50ZzPlZJ+ED67kVumgUJDWh9FdFfNhKHe84cTcf8ZTrObfDdOs=</c2pa:manifest></metadata>
<rect x="1" y="1" width="382" height="694" rx="18" fill="#FFFFFF" stroke="#2B2B2B" stroke-width="2"/>
<rect x="174" y="282" width="36" height="6" fill="#231812"/>
<rect x="174" y="288" width="6" height="6" fill="#231812"/>
<rect x="180" y="288" width="12" height="6" fill="#4C8C3C"/>
<rect x="192" y="288" width="12" height="6" fill="#6FBF4F"/>
<rect x="204" y="288" width="6" height="6" fill="#231812"/>
<rect x="174" y="294" width="6" height="6" fill="#231812"/>
<rect x="180" y="294" width="12" height="6" fill="#4C8C3C"/>
<rect x="192" y="294" width="12" height="6" fill="#6FBF4F"/>
<rect x="204" y="294" width="6" height="6" fill="#231812"/>
<rect x="168" y="300" width="12" height="6" fill="#231812"/>
<rect x="180" y="300" width="12" height="6" fill="#4C8C3C"/>
<rect x="192" y="300" width="12" height="6" fill="#6FBF4F"/>
<rect x="204" y="300" width="6" height="6" fill="#231812"/>
<rect x="114" y="306" width="60" height="6" fill="#231812"/>
<rect x="174" y="306" width="6" height="6" fill="#2E7D32"/>
<rect x="180" y="306" width="12" height="6" fill="#4C8C3C"/>
<rect x="192" y="306" width="12" height="6" fill="#6FBF4F"/>
<rect x="204" y="306" width="6" height="6" fill="#231812"/>
<rect x="114" y="312" width="6" height="6" fill="#231812"/>
<rect x="120" y="312" width="54" height="6" fill="#2E7D32"/>
<rect x="174" y="312" width="6" height="6" fill="#66BB6A"/>
<rect x="180" y="312" width="6" height="6" fill="#2E7D32"/>
<rect x="186" y="312" width="6" height="6" fill="#4C8C3C"/>
<rect x="192" y="312" width="12" height="6" fill="#6FBF4F"/>
<rect x="204" y="312" width="6" height="6" fill="#231812"/>
<rect x="114" y="318" width="12" height="6" fill="#231812"/>
<rect x="126" y="318" width="30" height="6" fill="#2E7D32"/>
<rect x="156" y="318" width="30" height="6" fill="#66BB6A"/>
<rect x="186" y="318" width="6" height="6" fill="#4C8C3C"/>
<rect x="192" y="318" width="12" height="6" fill="#6FBF4F"/>
<rect x="204" y="318" width="6" height="6" fill="#231812"/>
<rect x="120" y="324" width="18" height="6" fill="#231812"/>
<rect x="138" y="324" width="12" height="6" fill="#2E7D32"/>
<rect x="150" y="324" width="6" height="6" fill="#66BB6A"/>
<rect x="156" y="324" width="12" height="6" fill="#2E7D32"/>
<rect x="168" y="324" width="18" height="6" fill="#66BB6A"/>
<rect x="186" y="324" width="6" height="6" fill="#2E7D32"/>
<rect x="192" y="324" width="12" height="6" fill="#6FBF4F"/>
<rect x="204" y="324" width="6" height="6" fill="#231812"/>
<rect x="132" y="330" width="12" height="6" fill="#231812"/>
<rect x="144" y="330" width="18" height="6" fill="#2E7D32"/>
<rect x="162" y="330" width="6" height="6" fill="#66BB6A"/>
<rect x="168" y="330" width="18" height="6" fill="#2E7D32"/>
<rect x="186" y="330" width="6" height="6" fill="#66BB6A"/>
<rect x="192" y="330" width="12" height="6" fill="#6FBF4F"/>
<rect x="204" y="330" width="6" height="6" fill="#231812"/>
<rect x="138" y="336" width="12" height="6" fill="#231812"/>
<rect x="150" y="336" width="24" height="6" fill="#2E7D32"/>
<rect x="174" y="336" width="12" height="6" fill="#66BB6A"/>
<rect x="186" y="336" width="12" height="6" fill="#2E7D32"/>
<rect x="198" y="336" width="6" height="6" fill="#6FBF4F"/>
<rect x="204" y="336" width="6" height="6" fill="#231812"/>
<rect x="144" y="342" width="18" height="6" fill="#231812"/>
<rect x="162" y="342" width="18" height="6" fill="#2E7D32"/>
<rect x="180" y="342" width="6" height="6" fill="#66BB6A"/>
<rect x="186" y="342" width="12" height="6" fill="#2E7D32"/>
<rect x="198" y="342" width="6" height="6" fill="#6FBF4F"/>
<rect x="204" y="342" width="6" height="6" fill="#231812"/>
<rect x="156" y="348" width="12" height="6" fill="#231812"/>
<rect x="168" y="348" width="24" height="6" fill="#2E7D32"/>
<rect x="192" y="348" width="12" height="6" fill="#6FBF4F"/>
<rect x="204" y="348" width="6" height="6" fill="#231812"/>
<rect x="162" y="354" width="18" height="6" fill="#231812"/>
<rect x="180" y="354" width="6" height="6" fill="#4C8C3C"/>
<rect x="186" y="354" width="6" height="6" fill="#2E7D32"/>
<rect x="192" y="354" width="12" height="6" fill="#6FBF4F"/>
<rect x="204" y="354" width="6" height="6" fill="#231812"/>
<rect x="174" y="360" width="6" height="6" fill="#231812"/>
<rect x="180" y="360" width="12" height="6" fill="#4C8C3C"/>
<rect x="192" y="360" width="12" height="6" fill="#6FBF4F"/>
<rect x="204" y="360" width="6" height="6" fill="#231812"/>
<rect x="174" y="366" width="6" height="6" fill="#231812"/>
<rect x="180" y="366" width="12" height="6" fill="#4C8C3C"/>
<rect x="192" y="366" width="12" height="6" fill="#6FBF4F"/>
<rect x="204" y="366" width="6" height="6" fill="#231812"/>
<rect x="174" y="372" width="6" height="6" fill="#231812"/>
<rect x="180" y="372" width="12" height="6" fill="#4C8C3C"/>
<rect x="192" y="372" width="12" height="6" fill="#6FBF4F"/>
<rect x="204" y="372" width="6" height="6" fill="#231812"/>
<rect x="174" y="378" width="6" height="6" fill="#231812"/>
<rect x="180" y="378" width="12" height="6" fill="#4C8C3C"/>
<rect x="192" y="378" width="12" height="6" fill="#6FBF4F"/>
<rect x="204" y="378" width="6" height="6" fill="#231812"/>
<rect x="174" y="384" width="6" height="6" fill="#231812"/>
<rect x="180" y="384" width="12" height="6" fill="#4C8C3C"/>
<rect x="192" y="384" width="12" height="6" fill="#6FBF4F"/>
<rect x="204" y="384" width="12" height="6" fill="#231812"/>
<rect x="174" y="390" width="6" height="6" fill="#231812"/>
<rect x="180" y="390" width="12" height="6" fill="#4C8C3C"/>
<rect x="192" y="390" width="12" height="6" fill="#6FBF4F"/>
<rect x="204" y="390" width="6" height="6" fill="#66BB6A"/>
<rect x="210" y="390" width="78" height="6" fill="#231812"/>
<rect x="174" y="396" width="6" height="6" fill="#231812"/>
<rect x="180" y="396" width="12" height="6" fill="#4C8C3C"/>
<rect x="192" y="396" width="12" height="6" fill="#6FBF4F"/>
<rect x="204" y="396" width="24" height="6" fill="#66BB6A"/>
<rect x="228" y="396" width="54" height="6" fill="#2E7D32"/>
<rect x="282" y="396" width="6" height="6" fill="#231812"/>
<rect x="174" y="402" width="6" height="6" fill="#231812"/>
<rect x="180" y="402" width="12" height="6" fill="#4C8C3C"/>
<rect x="192" y="402" width="6" height="6" fill="#6FBF4F"/>
<rect x="198" y="402" width="6" height="6" fill="#2E7D32"/>
<rect x="204" y="402" width="30" height="6" fill="#66BB6A"/>
<rect x="234" y="402" width="36" height="6" fill="#2E7D32"/>
<rect x="270" y="402" width="18" height="6" fill="#231812"/>
<rect x="174" y="408" width="6" height="6" fill="#231812"/>
<rect x="180" y="408" width="12" height="6" fill="#4C8C3C"/>
<rect x="192" y="408" width="6" height="6" fill="#6FBF4F"/>
<rect x="198" y="408" width="24" height="6" fill="#66BB6A"/>
<rect x="222" y="408" width="12" height="6" fill="#2E7D32"/>
<rect x="234" y="408" width="6" height="6" fill="#66BB6A"/>
<rect x="240" y="408" width="18" height="6" fill="#2E7D32"/>
<rect x="258" y="408" width="18" height="6" fill="#231812"/>
<rect x="174" y="414" width="6" height="6" fill="#231812"/>
<rect x="180" y="414" width="12" height="6" fill="#4C8C3C"/>
<rect x="192" y="414" width="6" height="6" fill="#2E7D32"/>
<rect x="198" y="414" width="6" height="6" fill="#66BB6A"/>
<rect x="204" y="414" width="18" height="6" fill="#2E7D32"/>
<rect x="222" y="414" width="6" height="6" fill="#66BB6A"/>
<rect x="228" y="414" width="18" height="6" fill="#2E7D32"/>
<rect x="246" y="414" width="18" height="6" fill="#231812"/>
<rect x="174" y="420" width="6" height="6" fill="#231812"/>
<rect x="180" y="420" width="12" height="6" fill="#4C8C3C"/>
<rect x="192" y="420" width="12" height="6" fill="#2E7D32"/>
<rect x="204" y="420" width="12" height="6" fill="#66BB6A"/>
<rect x="216" y="420" width="24" height="6" fill="#2E7D32"/>
<rect x="240" y="420" width="12" height="6" fill="#231812"/>
<rect x="174" y="426" width="6" height="6" fill="#231812"/>
<rect x="180" y="426" width="12" height="6" fill="#4C8C3C"/>
<rect x="192" y="426" width="6" height="6" fill="#2E7D32"/>
<rect x="198" y="426" width="6" height="6" fill="#66BB6A"/>
<rect x="204" y="426" width="24" height="6" fill="#2E7D32"/>
<rect x="228" y="426" width="18" height="6" fill="#231812"/>
<rect x="174" y="432" width="6" height="6" fill="#231812"/>
<rect x="180" y="432" width="12" height="6" fill="#4C8C3C"/>
<rect x="192" y="432" width="6" height="6" fill="#6FBF4F"/>
<rect x="198" y="432" width="18" height="6" fill="#2E7D32"/>
<rect x="216" y="432" width="18" height="6" fill="#231812"/>
<rect x="174" y="438" width="6" height="6" fill="#231812"/>
<rect x="180" y="438" width="12" height="6" fill="#4C8C3C"/>
<rect x="192" y="438" width="6" height="6" fill="#6FBF4F"/>
<rect x="198" y="438" width="12" height="6" fill="#2E7D32"/>
<rect x="210" y="438" width="12" height="6" fill="#231812"/>
<rect x="174" y="444" width="6" height="6" fill="#231812"/>
<rect x="180" y="444" width="12" height="6" fill="#4C8C3C"/>
<rect x="192" y="444" width="6" height="6" fill="#6FBF4F"/>
<rect x="198" y="444" width="6" height="6" fill="#2E7D32"/>
<rect x="204" y="444" width="12" height="6" fill="#231812"/>
<rect x="174" y="450" width="6" height="6" fill="#231812"/>
<rect x="180" y="450" width="12" height="6" fill="#4C8C3C"/>
<rect x="192" y="450" width="12" height="6" fill="#6FBF4F"/>
<rect x="204" y="450" width="6" height="6" fill="#231812"/>
<rect x="174" y="456" width="6" height="6" fill="#231812"/>
<rect x="180" y="456" width="12" height="6" fill="#4C8C3C"/>
<rect x="192" y="456" width="12" height="6" fill="#6FBF4F"/>
<rect x="204" y="456" width="6" height="6" fill="#231812"/>
<rect x="168" y="462" width="12" height="6" fill="#231812"/>
<rect x="180" y="462" width="12" height="6" fill="#4C8C3C"/>
<rect x="192" y="462" width="12" height="6" fill="#6FBF4F"/>
<rect x="204" y="462" width="6" height="6" fill="#231812"/>
<rect x="132" y="468" width="42" height="6" fill="#231812"/>
<rect x="174" y="468" width="6" height="6" fill="#2E7D32"/>
<rect x="180" y="468" width="12" height="6" fill="#4C8C3C"/>
<rect x="192" y="468" width="12" height="6" fill="#6FBF4F"/>
<rect x="204" y="468" width="6" height="6" fill="#231812"/>
<rect x="96" y="474" width="42" height="6" fill="#231812"/>
<rect x="138" y="474" width="36" height="6" fill="#2E7D32"/>
<rect x="174" y="474" width="6" height="6" fill="#66BB6A"/>
<rect x="180" y="474" width="12" height="6" fill="#4C8C3C"/>
<rect x="192" y="474" width="12" height="6" fill="#6FBF4F"/>
<rect x="204" y="474" width="6" height="6" fill="#231812"/>
<rect x="96" y="480" width="6" height="6" fill="#231812"/>
<rect x="102" y="480" width="48" height="6" fill="#2E7D32"/>
<rect x="150" y="480" width="30" height="6" fill="#66BB6A"/>
<rect x="180" y="480" width="6" height="6" fill="#2E7D32"/>
<rect x="186" y="480" width="6" height="6" fill="#4C8C3C"/>
<rect x="192" y="480" width="12" height="6" fill="#6FBF4F"/>
<rect x="204" y="480" width="6" height="6" fill="#231812"/>
<rect x="96" y="486" width="18" height="6" fill="#231812"/>
<rect x="114" y="486" width="30" height="6" fill="#2E7D32"/>
<rect x="144" y="486" width="42" height="6" fill="#66BB6A"/>
<rect x="186" y="486" width="6" height="6" fill="#4C8C3C"/>
<rect x="192" y="486" width="12" height="6" fill="#6FBF4F"/>
<rect x="204" y="486" width="6" height="6" fill="#231812"/>
<rect x="108" y="492" width="12" height="6" fill="#231812"/>
<rect x="120" y="492" width="18" height="6" fill="#2E7D32"/>
<rect x="138" y="492" width="6" height="6" fill="#66BB6A"/>
<rect x="144" y="492" width="24" height="6" fill="#2E7D32"/>
<rect x="168" y="492" width="18" height="6" fill="#66BB6A"/>
<rect x="186" y="492" width="6" height="6" fill="#2E7D32"/>
<rect x="192" y="492" width="12" height="6" fill="#6FBF4F"/>
<rect x="204" y="492" width="6" height="6" fill="#231812"/>
<rect x="114" y="498" width="18" height="6" fill="#231812"/>
<rect x="132" y="498" width="24" height="6" fill="#2E7D32"/>
<rect x="156" y="498" width="12" height="6" fill="#66BB6A"/>
<rect x="168" y="498" width="18" height="6" fill="#2E7D32"/>
<rect x="186" y="498" width="6" height="6" fill="#66BB6A"/>
<rect x="192" y="498" width="12" height="6" fill="#6FBF4F"/>
<rect x="204" y="498" width="6" height="6" fill="#231812"/>
<rect x="126" y="504" width="18" height="6" fill="#231812"/>
<rect x="144" y="504" width="24" height="6" fill="#2E7D32"/>
<rect x="168" y="504" width="18" height="6" fill="#66BB6A"/>
<rect x="186" y="504" width="12" height="6" fill="#2E7D32"/>
<rect x="198" y="504" width="6" height="6" fill="#6FBF4F"/>
<rect x="204" y="504" width="6" height="6" fill="#231812"/>
<rect x="138" y="510" width="12" height="6" fill="#231812"/>
<rect x="150" y="510" width="30" height="6" fill="#2E7D32"/>
<rect x="180" y="510" width="6" height="6" fill="#66BB6A"/>
<rect x="186" y="510" width="6" height="6" fill="#2E7D32"/>
<rect x="192" y="510" width="12" height="6" fill="#6FBF4F"/>
<rect x="204" y="510" width="6" height="6" fill="#231812"/>
<rect x="144" y="516" width="18" height="6" fill="#231812"/>
<rect x="162" y="516" width="30" height="6" fill="#2E7D32"/>
<rect x="192" y="516" width="12" height="6" fill="#6FBF4F"/>
<rect x="204" y="516" width="6" height="6" fill="#231812"/>
<rect x="156" y="522" width="18" height="6" fill="#231812"/>
<rect x="174" y="522" width="12" height="6" fill="#2E7D32"/>
<rect x="186" y="522" width="6" height="6" fill="#4C8C3C"/>
<rect x="192" y="522" width="12" height="6" fill="#6FBF4F"/>
<rect x="204" y="522" width="6" height="6" fill="#231812"/>
<rect x="168" y="528" width="12" height="6" fill="#231812"/>
<rect x="180" y="528" width="6" height="6" fill="#2E7D32"/>
<rect x="186" y="528" width="6" height="6" fill="#4C8C3C"/>
<rect x="192" y="528" width="12" height="6" fill="#6FBF4F"/>
<rect x="204" y="528" width="6" height="6" fill="#231812"/>
<rect x="174" y="534" width="6" height="6" fill="#231812"/>
<rect x="180" y="534" width="12" height="6" fill="#4C8C3C"/>
<rect x="192" y="534" width="12" height="6" fill="#6FBF4F"/>
<rect x="204" y="534" width="6" height="6" fill="#231812"/>
<rect x="174" y="540" width="6" height="6" fill="#231812"/>
<rect x="180" y="540" width="12" height="6" fill="#4C8C3C"/>
<rect x="192" y="540" width="12" height="6" fill="#6FBF4F"/>
<rect x="204" y="540" width="6" height="6" fill="#231812"/>
<rect x="174" y="546" width="6" height="6" fill="#231812"/>
<rect x="180" y="546" width="12" height="6" fill="#4C8C3C"/>
<rect x="192" y="546" width="12" height="6" fill="#6FBF4F"/>
<rect x="204" y="546" width="6" height="6" fill="#231812"/>
<rect x="174" y="552" width="6" height="6" fill="#231812"/>
<rect x="180" y="552" width="12" height="6" fill="#4C8C3C"/>
<rect x="192" y="552" width="12" height="6" fill="#6FBF4F"/>
<rect x="204" y="552" width="6" height="6" fill="#231812"/>
<rect x="174" y="558" width="6" height="6" fill="#231812"/>
<rect x="180" y="558" width="12" height="6" fill="#4C8C3C"/>
<rect x="192" y="558" width="12" height="6" fill="#6FBF4F"/>
<rect x="204" y="558" width="6" height="6" fill="#231812"/>
<rect x="174" y="564" width="6" height="6" fill="#231812"/>
<rect x="180" y="564" width="12" height="6" fill="#4C8C3C"/>
<rect x="192" y="564" width="12" height="6" fill="#6FBF4F"/>
<rect x="204" y="564" width="6" height="6" fill="#231812"/>
<rect x="150" y="570" width="30" height="6" fill="#231812"/>
<rect x="180" y="570" width="12" height="6" fill="#4C8C3C"/>
<rect x="192" y="570" width="12" height="6" fill="#6FBF4F"/>
<rect x="204" y="570" width="36" height="6" fill="#231812"/>
<rect x="120" y="576" width="36" height="6" fill="#231812"/>
<rect x="156" y="576" width="24" height="6" fill="#8B5E3C"/>
<rect x="180" y="576" width="12" height="6" fill="#4C8C3C"/>
<rect x="192" y="576" width="12" height="6" fill="#6FBF4F"/>
<rect x="204" y="576" width="30" height="6" fill="#8B5E3C"/>
<rect x="234" y="576" width="36" height="6" fill="#231812"/>
<rect x="108" y="582" width="18" height="6" fill="#231812"/>
<rect x="126" y="582" width="54" height="6" fill="#8B5E3C"/>
<rect x="180" y="582" width="12" height="6" fill="#4C8C3C"/>
<rect x="192" y="582" width="12" height="6" fill="#6FBF4F"/>
<rect x="204" y="582" width="60" height="6" fill="#8B5E3C"/>
<rect x="264" y="582" width="18" height="6" fill="#231812"/>
<rect x="96" y="588" width="18" height="6" fill="#231812"/>
<rect x="114" y="588" width="66" height="6" fill="#8B5E3C"/>
<rect x="180" y="588" width="12" height="6" fill="#4C8C3C"/>
<rect x="192" y="588" width="12" height="6" fill="#6FBF4F"/>
<rect x="204" y="588" width="72" height="6" fill="#8B5E3C"/>
<rect x="276" y="588" width="18" height="6" fill="#231812"/>
<rect x="84" y="594" width="18" height="6" fill="#231812"/>
<rect x="102" y="594" width="78" height="6" fill="#8B5E3C"/>
<rect x="180" y="594" width="12" height="6" fill="#4C8C3C"/>
<rect x="192" y="594" width="12" height="6" fill="#6FBF4F"/>
<rect x="204" y="594" width="84" height="6" fill="#8B5E3C"/>
<rect x="288" y="594" width="18" height="6" fill="#231812"/>
<rect x="66" y="600" width="24" height="6" fill="#231812"/>
<rect x="90" y="600" width="90" height="6" fill="#8B5E3C"/>
<rect x="180" y="600" width="12" height="6" fill="#4C8C3C"/>
<rect x="192" y="600" width="12" height="6" fill="#6FBF4F"/>
<rect x="204" y="600" width="96" height="6" fill="#8B5E3C"/>
<rect x="300" y="600" width="24" height="6" fill="#231812"/>
<rect x="54" y="606" width="18" height="6" fill="#231812"/>
<rect x="72" y="606" width="108" height="6" fill="#8B5E3C"/>
<rect x="180" y="606" width="12" height="6" fill="#4C8C3C"/>
<rect x="192" y="606" width="12" height="6" fill="#6FBF4F"/>
<rect x="204" y="606" width="114" height="6" fill="#8B5E3C"/>
<rect x="318" y="606" width="18" height="6" fill="#231812"/>
<rect x="48" y="612" width="12" height="6" fill="#231812"/>
<rect x="60" y="612" width="12" height="6" fill="#8B5E3C"/>
<rect x="72" y="612" width="18" height="6" fill="#6B4423"/>
<rect x="90" y="612" width="90" height="6" fill="#8B5E3C"/>
<rect x="180" y="612" width="12" height="6" fill="#4C8C3C"/>
<rect x="192" y="612" width="12" height="6" fill="#6FBF4F"/>
<rect x="204" y="612" width="24" height="6" fill="#8B5E3C"/>
<rect x="228" y="612" width="18" height="6" fill="#6B4423"/>
<rect x="246" y="612" width="84" height="6" fill="#8B5E3C"/>
<rect x="330" y="612" width="12" height="6" fill="#231812"/>
<rect x="36" y="618" width="18" height="6" fill="#231812"/>
<rect x="54" y="618" width="18" height="6" fill="#8B5E3C"/>
<rect x="72" y="618" width="18" height="6" fill="#6B4423"/>
<rect x="90" y="618" width="90" height="6" fill="#8B5E3C"/>
<rect x="180" y="618" width="12" height="6" fill="#4C8C3C"/>
<rect x="192" y="618" width="12" height="6" fill="#6FBF4F"/>
<rect x="204" y="618" width="24" height="6" fill="#8B5E3C"/>
<rect x="228" y="618" width="18" height="6" fill="#6B4423"/>
<rect x="246" y="618" width="90" height="6" fill="#8B5E3C"/>
<rect x="336" y="618" width="18" height="6" fill="#231812"/>
<rect x="36" y="624" width="6" height="6" fill="#231812"/>
<rect x="42" y="624" width="30" height="6" fill="#8B5E3C"/>
<rect x="72" y="624" width="18" height="6" fill="#6B4423"/>
<rect x="90" y="624" width="78" height="6" fill="#8B5E3C"/>
<rect x="168" y="624" width="12" height="6" fill="#6B4423"/>
<rect x="180" y="624" width="12" height="6" fill="#4C8C3C"/>
<rect x="192" y="624" width="12" height="6" fill="#6FBF4F"/>
<rect x="204" y="624" width="24" height="6" fill="#8B5E3C"/>
<rect x="228" y="624" width="18" height="6" fill="#6B4423"/>
<rect x="246" y="624" width="102" height="6" fill="#8B5E3C"/>
<rect x="348" y="624" width="6" height="6" fill="#231812"/>
<rect x="30" y="630" width="12" height="6" fill="#231812"/>
<rect x="42" y="630" width="126" height="6" fill="#8B5E3C"/>
<rect x="168" y="630" width="18" height="6" fill="#6B4423"/>
<rect x="186" y="630" width="162" height="6" fill="#8B5E3C"/>
<rect x="348" y="630" width="12" height="6" fill="#231812"/>
<rect x="30" y="636" width="6" height="6" fill="#231812"/>
<rect x="36" y="636" width="36" height="6" fill="#8B5E3C"/>
<rect x="72" y="636" width="66" height="6" fill="#6B4423"/>
<rect x="138" y="636" width="30" height="6" fill="#8B5E3C"/>
<rect x="168" y="636" width="18" height="6" fill="#6B4423"/>
<rect x="186" y="636" width="66" height="6" fill="#8B5E3C"/>
<rect x="252" y="636" width="66" height="6" fill="#6B4423"/>
<rect x="318" y="636" width="36" height="6" fill="#8B5E3C"/>
<rect x="354" y="636" width="6" height="6" fill="#231812"/>
<rect x="30" y="642" width="6" height="6" fill="#231812"/>
<rect x="36" y="642" width="18" height="6" fill="#8B5E3C"/>
<rect x="54" y="642" width="102" height="6" fill="#6B4423"/>
<rect x="156" y="642" width="78" height="6" fill="#8B5E3C"/>
<rect x="234" y="642" width="102" height="6" fill="#6B4423"/>
<rect x="336" y="642" width="18" height="6" fill="#8B5E3C"/>
<rect x="354" y="642" width="6" height="6" fill="#231812"/>
<rect x="30" y="648" width="6" height="6" fill="#231812"/>
<rect x="36" y="648" width="6" height="6" fill="#8B5E3C"/>
<rect x="42" y="648" width="126" height="6" fill="#6B4423"/>
<rect x="168" y="648" width="54" height="6" fill="#8B5E3C"/>
<rect x="222" y="648" width="126" height="6" fill="#6B4423"/>
<rect x="348" y="648" width="6" height="6" fill="#8B5E3C"/>
<rect x="354" y="648" width="6" height="6" fill="#231812"/>
<rect x="24" y="654" width="12" height="6" fill="#231812"/>
<rect x="36" y="654" width="138" height="6" fill="#6B4423"/>
<rect x="174" y="654" width="42" height="6" fill="#8B5E3C"/>
<rect x="216" y="654" width="138" height="6" fill="#6B4423"/>
<rect x="354" y="654" width="12" height="6" fill="#231812"/>
<rect x="18" y="660" width="12" height="6" fill="#231812"/>
<rect x="30" y="660" width="150" height="6" fill="#6B4423"/>
<rect x="180" y="660" width="12" height="6" fill="#8B5E3C"/>
<rect x="192" y="660" width="168" height="6" fill="#6B4423"/>
<rect x="360" y="660" width="12" height="6" fill="#231812"/>
<rect x="18" y="666" width="6" height="6" fill="#231812"/>
<rect x="24" y="666" width="162" height="6" fill="#6B4423"/>
<rect x="186" y="666" width="6" height="6" fill="#8B5E3C"/>
<rect x="192" y="666" width="174" height="6" fill="#6B4423"/>
<rect x="366" y="666" width="6" height="6" fill="#231812"/>
<rect x="18" y="672" width="6" height="6" fill="#231812"/>
<rect x="24" y="672" width="162" height="6" fill="#6B4423"/>
<rect x="186" y="672" width="6" height="6" fill="#8B5E3C"/>
<rect x="192" y="672" width="174" height="6" fill="#6B4423"/>
<rect x="366" y="672" width="6" height="6" fill="#231812"/>
<rect x="18" y="678" width="6" height="6" fill="#231812"/>
<rect x="24" y="678" width="162" height="6" fill="#6B4423"/>
<rect x="186" y="678" width="18" height="6" fill="#8B5E3C"/>
<rect x="204" y="678" width="162" height="6" fill="#6B4423"/>
<rect x="366" y="678" width="6" height="6" fill="#231812"/>
<rect x="18" y="684" width="12" height="6" fill="#231812"/>
<rect x="30" y="684" width="150" height="6" fill="#6B4423"/>
<rect x="180" y="684" width="30" height="6" fill="#8B5E3C"/>
<rect x="210" y="684" width="150" height="6" fill="#6B4423"/>
<rect x="360" y="684" width="12" height="6" fill="#231812"/>
<rect x="24" y="690" width="12" height="6" fill="#231812"/>
<rect x="36" y="690" width="138" height="6" fill="#6B4423"/>
<rect x="174" y="690" width="42" height="6" fill="#8B5E3C"/>
<rect x="216" y="690" width="138" height="6" fill="#6B4423"/>
<rect x="354" y="690" width="12" height="6" fill="#231812"/>
</svg>